<?xml version="1.0" encoding="UTF-8" standalone="no"?>
<svg width="16px" height="14px" viewBox="0 0 16 14" version="1.1" xmlns="http://www.w3.org/2000/svg" xmlns:xlink="http://www.w3.org/1999/xlink" xmlns:sketch="http://www.bohemiancoding.com/sketch/ns">
    <!-- Generator: Sketch Beta 3.1 (8657) - http://www.bohemiancoding.com/sketch -->
    <title>Shape</title>
    <desc>Created with Sketch Beta.</desc>
    <defs></defs>
    <g id="Page-1" stroke="none" stroke-width="1" fill="none" fill-rule="evenodd" sketch:type="MSPage">
        <path d="M0,0 L0,14 L16,14 L16,0 L0,0 L0,0 Z M6,9 L6,6 L10,6 L10,9 L6,9 L6,9 Z M10,10 L10,13 L6,13 L6,10 L10,10 L10,10 Z M10,2 L10,5 L6,5 L6,2 L10,2 L10,2 Z M5,2 L5,5 L1,5 L1,2 L5,2 L5,2 Z M1,6 L5,6 L5,9 L1,9 L1,6 L1,6 Z M11,6 L15,6 L15,9 L11,9 L11,6 L11,6 Z M11,5 L11,2 L15,2 L15,5 L11,5 L11,5 Z M1,10 L5,10 L5,13 L1,13 L1,10 L1,10 Z M11,13 L11,10 L15,10 L15,13 L11,13 L11,13 Z" id="Shape" fill="#FFFFFF" sketch:type="MSShapeGroup"></path>
    </g>
</svg>